<?xml version="1.0" encoding="UTF-8"?>
<svg width="1000px" height="1000px" viewBox="0 0 1000 1000" version="1.1" xmlns="http://www.w3.org/2000/svg">
    <g stroke="none" stroke-width="1" fill="none" fill-rule="evenodd">
        <rect fill="#006FCF" x="0" y="0" width="1000" height="1000" rx="50"/>
        <path d="M500,227.2 L444.4,341.6 L555.6,341.6 L500,227.2 Z M638.9,455.6 L694.4,455.6 L750,341.2 L694.4,227.2 L638.9,227.2 L583.3,341.2 L638.9,455.6 Z M305.6,455.6 L361.1,455.6 L416.7,341.2 L361.1,227.2 L305.6,227.2 L250,341.2 L305.6,455.6 Z M500,772.8 L555.6,658.4 L444.4,658.4 L500,772.8 Z M361.1,544.4 L305.6,544.4 L250,658.8 L305.6,772.8 L361.1,772.8 L416.7,658.8 L361.1,544.4 Z M694.4,544.4 L638.9,544.4 L583.3,658.8 L638.9,772.8 L694.4,772.8 L750,658.8 L694.4,544.4 Z" fill="#FFFFFF"/>
    </g>
</svg> 