<?xml version="1.0" encoding="UTF-8"?>
<svg width="1000px" height="324px" viewBox="0 0 1000 324" version="1.1" xmlns="http://www.w3.org/2000/svg">
    <g stroke="none" stroke-width="1" fill="none" fill-rule="evenodd">
        <g fill-rule="nonzero">
            <path d="M651.19,0.45 L348.81,0.45 C156.76,0.45 0.45,156.76 0.45,348.81 L0.45,651.19 C0.45,843.24 156.76,999.55 348.81,999.55 L651.19,999.55 C843.24,999.55 999.55,843.24 999.55,651.19 L999.55,348.81 C999.55,156.76 843.24,0.45 651.19,0.45 Z" fill="#1434CB"/>
            <path d="M416.43,303.5 L385.11,470.92 L347.46,470.92 L378.77,303.5 L416.43,303.5 Z M606.21,381.77 C597.78,378.15 584.49,374.13 567.06,374.13 C524.94,374.13 495.27,396.21 495.07,427.33 C494.88,449.81 516.35,462.29 532.54,469.47 C549.13,476.85 555.22,481.67 555.22,488.24 C555.02,498.49 542.34,503.1 530.47,503.1 C513.44,503.1 503.99,499.89 490.11,493.32 L484.81,490.71 L478.92,523.97 C489.17,528.79 508.82,532.8 529.27,533 C574.24,533 603.31,511.32 603.71,478.26 C603.91,460.68 592.86,447.19 566.27,436.14 C550.47,429.17 540.83,424.35 540.83,416.77 C541.02,409.79 548.93,402.62 567.26,402.62 C582.46,402.62 593.71,405.83 602.34,409.24 L606.21,410.85 L612.1,378.39 L606.21,381.77 Z M778.99,303.5 L750.12,470.92 L712.07,470.92 L683.4,303.5 L722.25,303.5 L739.87,412.95 L741.47,421.94 L743.07,412.95 L770.95,303.5 L778.99,303.5 Z M538.43,303.5 L484.61,470.92 L445.37,470.92 L418.68,346.83 C417.08,340.26 415.68,337.85 410.57,334.84 C401.94,329.82 385.51,325 371.02,321.99 L371.82,303.5 L435.92,303.5 L450.92,397.82 L485.21,303.5 L538.43,303.5 Z" fill="#FFFFFF"/>
        </g>
    </g>
</svg> 